<svg xmlns="http://www.w3.org/2000/svg" viewBox="0 0 125.71 61.93"><defs><style>.cls-1{fill:#3a0256}</style></defs><g id="Layer_2" data-name="Layer 2"><g id="Silicon_Damp_Treatment" data-name="Silicon Damp Treatment"><path class="cls-1" d="M31.06 15.72V1.25c0-.57 0-.57.56-.57H39c.5 0 .51 0 .51.51V11.4c0 .52 0 .52.52.52h9.57c.5 0 .5 0 .5-.49V1.21c0-.52 0-.53.52-.53h7.37c.5 0 .5 0 .5.51v29.09c0 .51 0 .51-.51.51h-7.41c-.52 0-.52 0-.52-.53V19.93c0-.54 0-.54-.54-.54H40c-.51 0-.51 0-.51.53v10.33c0 .54 0 .54-.55.54h-7.36c-.51 0-.52 0-.52-.53ZM5.88 35.93h10.51a1 1 0 0 1 .77.31 63.47 63.47 0 0 0 14 10.13 61.18 61.18 0 0 0 18.18 6.31 69.62 69.62 0 0 0 7.07.87c2.25.16 4.53.19 6.79.14 1.85 0 3.7-.29 5.55-.43a1 1 0 0 1 .56.14l8.54 6.07a.89.89 0 0 1 .27.3 70.58 70.58 0 0 1-36.61-.5A71.11 71.11 0 0 1 5.82 36.08ZM94 30.76h-8.48a.64.64 0 0 1-.71-.49c-.58-1.52-1.19-3-1.78-4.53a.54.54 0 0 0-.58-.4H71.79a.56.56 0 0 0-.61.43c-.59 1.52-1.21 3-1.8 4.55a.58.58 0 0 1-.64.44H60.5c.07-.2.12-.36.18-.5q6.1-14.6 12.24-29.19a.56.56 0 0 1 .6-.39h7.4a.56.56 0 0 1 .6.39L93 28.31c.29.68.58 1.35.86 2 .07.14.14.26.14.45ZM77.2 10.6h-.1C76 13.31 75 16 73.86 18.75h6.55C79.33 16 78.26 13.3 77.2 10.6ZM115.2 10.08c-.46-.29-.91-.59-1.38-.86a13.43 13.43 0 0 0-7.39-2 4.43 4.43 0 0 0-1.61.39 1.7 1.7 0 0 0-.13 3 11 11 0 0 0 3.43 1.18 38.55 38.55 0 0 1 6.33 1.84 10.18 10.18 0 0 1 4.2 2.91 7.1 7.1 0 0 1 1.54 4.12 9.85 9.85 0 0 1-.63 4.47 9 9 0 0 1-5.1 5 15.24 15.24 0 0 1-5.5 1.15 22.71 22.71 0 0 1-9.54-1.6 19.07 19.07 0 0 1-5.13-3.06c-.29-.24-.3-.4-.05-.69 1.38-1.62 2.74-3.26 4.09-4.9.22-.26.36-.28.64-.07a15.49 15.49 0 0 0 7.17 3.19 10 10 0 0 0 3.69 0 3.77 3.77 0 0 0 1.19-.48 1.65 1.65 0 0 0 0-2.85 13.56 13.56 0 0 0-2.77-1.1c-1.75-.51-3.53-.89-5.28-1.4a13.64 13.64 0 0 1-5-2.48 7.13 7.13 0 0 1-2.54-5.16 9.61 9.61 0 0 1 .84-4.88 9.3 9.3 0 0 1 5.44-4.74 16.36 16.36 0 0 1 6.8-.85 21.73 21.73 0 0 1 5.25.92A17.15 17.15 0 0 1 119.15 4c.15.11.29.2.13.42l-4 5.58ZM15.88 0a16.66 16.66 0 0 1 8.55 2.35 15.24 15.24 0 0 1 4 3.69c.21.28.09.41-.12.58C26.52 8 24.75 9.36 23 10.72c-.67.52-.67.51-1.24-.14a7.9 7.9 0 0 0-4.83-2.79 6.83 6.83 0 0 0-7.62 4.5 8.76 8.76 0 0 0 1.16 8.85 6.59 6.59 0 0 0 6.11 2.52A8 8 0 0 0 22 20.6c.57-.66.41-.61 1.08-.13l5.32 3.78c.41.3.41.3.11.7a15.35 15.35 0 0 1-6.69 5.31 16.85 16.85 0 0 1-5.4 1.08 15.69 15.69 0 0 1-7.22-1.27A14.75 14.75 0 0 1 .32 18.85a15.61 15.61 0 0 1 2-11.43A14.87 14.87 0 0 1 12.61.4c1.07-.22 2.18-.27 3.27-.4ZM79.82 59.37c.14-.8.26-1.48.39-2.16.4-2.18.8-4.35 1.18-6.53a.62.62 0 0 1 .46-.53 62.38 62.38 0 0 0 12.2-5.83 61.84 61.84 0 0 0 10.4-8 1.17 1.17 0 0 1 .87-.36h10.49l.06.11a65.83 65.83 0 0 1-7.46 7.75 71.37 71.37 0 0 1-28.59 15.55Z"/><path class="cls-1" d="M121.86 6.53a3.83 3.83 0 0 1 3.85 3.83 3.88 3.88 0 0 1-3.87 3.87 3.85 3.85 0 0 1 0-7.7Zm0 1a2.79 2.79 0 0 0-2.83 2.84 2.81 2.81 0 1 0 5.61 0 2.76 2.76 0 0 0-2.76-2.84Z"/><path class="cls-1" d="M120.76 12.06V8.52h1a3.75 3.75 0 0 1 .82.06 1 1 0 0 1 .7.55 1.3 1.3 0 0 1 .1.49 1.07 1.07 0 0 1-.2.67 1 1 0 0 1-.59.34l1 1.43h-1.09l-.81-1.38v1.38Zm.9-1.87h.18a.81.81 0 0 0 .46-.1.39.39 0 0 0 .14-.33.46.46 0 0 0-.13-.38.68.68 0 0 0-.45-.11h-.2Z"/></g></g></svg>