<svg xmlns="http://www.w3.org/2000/svg" viewBox="0 0 170.36 79.49"><defs><style>.cls-1 {
  fill: #00aec7;
}

.cls-2 {
  fill: #61116a;
}

</style></defs><g id="Layer_2" data-name="Layer 2"><g id="Fire_Remedials" data-name="Fire Remedials"><rect class="cls-1" x="28.37" width="52.02" height="4.5"></rect><rect class="cls-1" x="30.35" y="5.9" width="48.05" height="1.82"></rect><path class="cls-1" d="M37.54,13.94a4.9,4.9,0,0,1-.82,2.69H72a4.9,4.9,0,0,1-.82-2.69,5.15,5.15,0,0,1,2-4H35.56A5.15,5.15,0,0,1,37.54,13.94Z"></path><path class="cls-1" d="M70.54,18.63V50.42a18.47,18.47,0,0,0,1.79-.53V18.63ZM64.18,50.94a12.85,12.85,0,0,0,1.36.08c.41,0,.82,0,1.21,0V18.63H64.18ZM36.36,46h.57a56.16,56.16,0,0,1,7.8.57V18.63H36.36Zm20.31,3.23q2,.55,3.72,1V18.63H56.67Zm-9.08-2.19c2,.38,3.94.83,5.72,1.29V18.63H47.59Z"></path><path class="cls-1" d="M2.87,74.1h.84l2,5.24H4.88l-.57-1.57H2.16l-.6,1.57H.8ZM4.1,77.19l-.85-2.31-.88,2.31Z"></path><path class="cls-1" d="M8.88,74.1v3.24a1.86,1.86,0,0,0,.23,1,1.19,1.19,0,0,0,1.13.56,1.35,1.35,0,0,0,1.3-.61,1.89,1.89,0,0,0,.18-.9V74.1h.75V77a3.3,3.3,0,0,1-.27,1.49,2,2,0,0,1-1.9.94,1.93,1.93,0,0,1-1.89-.94A3.16,3.16,0,0,1,8.13,77V74.1Z"></path><path class="cls-1" d="M13.61,74.1h.73v2.56l2.74-2.56h1l-2.34,2.12,2.39,3.12h-1l-2-2.63-.89.8v1.83h-.73Z"></path><path class="cls-1" d="M24.5,74.25a1.88,1.88,0,0,1,1,1.44h-.74a1.29,1.29,0,0,0-.54-.84,2,2,0,0,0-1.05-.26,1.63,1.63,0,0,0-1.25.55,2.28,2.28,0,0,0-.51,1.62,2.55,2.55,0,0,0,.42,1.52,1.58,1.58,0,0,0,1.37.59,1.76,1.76,0,0,0,1.21-.42,1.68,1.68,0,0,0,.49-1.33H23.17v-.58h2.41v2.8H25.1l-.18-.68a2.64,2.64,0,0,1-.66.55,2.48,2.48,0,0,1-1.22.26,2.43,2.43,0,0,1-1.65-.6,2.76,2.76,0,0,1-.76-2.07,2.92,2.92,0,0,1,.74-2.09A2.4,2.4,0,0,1,23.18,74,2.86,2.86,0,0,1,24.5,74.25Z"></path><path class="cls-1" d="M31.33,74.85a2.82,2.82,0,0,1,.54,1.78,3,3,0,0,1-.62,2,2.86,2.86,0,0,1-4.08.11,2.86,2.86,0,0,1-.65-1.94,3,3,0,0,1,.55-1.82,2.44,2.44,0,0,1,2.1-1A2.6,2.6,0,0,1,31.33,74.85Zm-.66,3.34a2.81,2.81,0,0,0,.44-1.55,2.11,2.11,0,0,0-.51-1.48,1.74,1.74,0,0,0-1.38-.57,1.85,1.85,0,0,0-1.39.56,2.27,2.27,0,0,0-.54,1.64,2.32,2.32,0,0,0,.46,1.47,1.78,1.78,0,0,0,1.5.6A1.59,1.59,0,0,0,30.67,78.19Z"></path><path class="cls-1" d="M33.2,74.1l1.57,4.46,1.56-4.46h.84l-2,5.24h-.79l-2-5.24Z"></path><path class="cls-1" d="M37.94,74.1h4v.65H38.66v1.58h3v.61h-3v1.77H42v.63h-4Z"></path><path class="cls-1" d="M43.07,74.1h2.49a2.52,2.52,0,0,1,1,.18,1.22,1.22,0,0,1,.76,1.23,1.37,1.37,0,0,1-.2.77,1.5,1.5,0,0,1-.57.48,1.27,1.27,0,0,1,.48.33,1.13,1.13,0,0,1,.18.66l0,.7a1.64,1.64,0,0,0,.05.45.43.43,0,0,0,.24.32v.12h-.91a.48.48,0,0,1-.06-.18,2.37,2.37,0,0,1,0-.41l0-.87a.71.71,0,0,0-.38-.69,1.55,1.55,0,0,0-.65-.1H43.81v2.25h-.74Zm2.41,2.4a1.47,1.47,0,0,0,.81-.2.79.79,0,0,0,.29-.72.76.76,0,0,0-.41-.76,1.41,1.41,0,0,0-.59-.11H43.81V76.5Z"></path><path class="cls-1" d="M48.51,74.1h.87l2.74,4.23V74.1h.71v5.24H52l-2.78-4.23v4.23h-.71Z"></path><path class="cls-1" d="M54,74.1h1.06l1.58,4.43,1.57-4.43h1.06v5.24h-.71V76.25c0-.11,0-.29,0-.53s0-.51,0-.8L57,79.34h-.74l-1.58-4.42v.16c0,.13,0,.33,0,.59s0,.45,0,.58v3.09H54Z"></path><path class="cls-1" d="M60.49,74.1h4v.65H61.21v1.58h3v.61h-3v1.77h3.32v.63h-4Z"></path><path class="cls-1" d="M65.52,74.1h.88l2.74,4.23V74.1h.71v5.24H69l-2.78-4.23v4.23h-.71Z"></path><path class="cls-1" d="M75.05,74.1v.63H73.2v4.61h-.75V74.73H70.59V74.1Z"></path><path class="cls-1" d="M81.61,74.49a1.78,1.78,0,0,1,.63,1.18h-.72a1.42,1.42,0,0,0-.49-.8,1.58,1.58,0,0,0-1-.29,1.67,1.67,0,0,0-1.29.54,2.47,2.47,0,0,0-.49,1.67,2.4,2.4,0,0,0,.44,1.49,1.59,1.59,0,0,0,1.33.57,1.43,1.43,0,0,0,1.23-.6,2.18,2.18,0,0,0,.33-.83h.73a2.34,2.34,0,0,1-.64,1.38,2.29,2.29,0,0,1-1.74.67,2.31,2.31,0,0,1-1.59-.55,3.28,3.28,0,0,1-.21-4.15A2.34,2.34,0,0,1,80,74,2.27,2.27,0,0,1,81.61,74.49Z"></path><path class="cls-1" d="M83.33,74.1h4v.65H84.05v1.58h3v.61h-3v1.77h3.32v.63h-4Z"></path><path class="cls-1" d="M88.45,74.1H91a2.52,2.52,0,0,1,1,.18,1.22,1.22,0,0,1,.76,1.23,1.3,1.3,0,0,1-.21.77,1.36,1.36,0,0,1-.57.48,1.24,1.24,0,0,1,.49.33,1.13,1.13,0,0,1,.18.66l0,.7a1.64,1.64,0,0,0,0,.45.43.43,0,0,0,.24.32v.12H92a.48.48,0,0,1-.06-.18,2.37,2.37,0,0,1,0-.41l-.05-.87a.7.7,0,0,0-.39-.69,1.49,1.49,0,0,0-.65-.1H89.2v2.25h-.75Zm2.42,2.4a1.47,1.47,0,0,0,.81-.2.81.81,0,0,0,.29-.72.76.76,0,0,0-.41-.76,1.41,1.41,0,0,0-.59-.11H89.2V76.5Z"></path><path class="cls-1" d="M97.75,74.1v.63H95.9v4.61h-.75V74.73H93.3V74.1Z"></path><path class="cls-1" d="M98.61,74.1h.75v5.24h-.75Z"></path><path class="cls-1" d="M100.64,74.1h3.81v.65h-3.07v1.58h2.7V77h-2.7v2.38h-.74Z"></path><path class="cls-1" d="M105.41,74.1h.75v5.24h-.75Z"></path><path class="cls-1" d="M111.26,74.49a1.78,1.78,0,0,1,.63,1.18h-.73a1.46,1.46,0,0,0-.48-.8,1.6,1.6,0,0,0-1-.29,1.65,1.65,0,0,0-1.29.54,2.92,2.92,0,0,0,0,3.16,1.58,1.58,0,0,0,1.32.57,1.41,1.41,0,0,0,1.23-.6,2.36,2.36,0,0,0,.34-.83h.72a2.27,2.27,0,0,1-.63,1.38,2.6,2.6,0,0,1-3.34.12,3.31,3.31,0,0,1-.21-4.15,2.36,2.36,0,0,1,1.9-.81A2.29,2.29,0,0,1,111.26,74.49Z"></path><path class="cls-1" d="M114.51,74.1h.84l2,5.24h-.82L116,77.77H113.8l-.6,1.57h-.76Zm1.23,3.09-.85-2.31L114,77.19Z"></path><path class="cls-1" d="M121.44,74.1v.63h-1.85v4.61h-.75V74.73H117V74.1Z"></path><path class="cls-1" d="M122.29,74.1H123v5.24h-.75Z"></path><path class="cls-1" d="M128.78,74.85a2.82,2.82,0,0,1,.54,1.78,3.05,3.05,0,0,1-.62,2,2.56,2.56,0,0,1-2.09.91,2.58,2.58,0,0,1-2-.8,2.91,2.91,0,0,1-.64-1.94,3,3,0,0,1,.55-1.82,2.44,2.44,0,0,1,2.1-1A2.6,2.6,0,0,1,128.78,74.85Zm-.66,3.34a2.81,2.81,0,0,0,.44-1.55,2.11,2.11,0,0,0-.51-1.48,1.74,1.74,0,0,0-1.38-.57,1.85,1.85,0,0,0-1.39.56,2.27,2.27,0,0,0-.54,1.64,2.32,2.32,0,0,0,.46,1.47,1.78,1.78,0,0,0,1.5.6A1.59,1.59,0,0,0,128.12,78.19Z"></path><path class="cls-1" d="M130.21,74.1h.88l2.74,4.23V74.1h.71v5.24h-.84l-2.78-4.23v4.23h-.71Z"></path><path class="cls-1" d="M138.35,77.65a1.25,1.25,0,0,0,1.47,1.24,2.45,2.45,0,0,0,.74-.11.81.81,0,0,0,.64-.79.67.67,0,0,0-.27-.61,2.61,2.61,0,0,0-.86-.31l-.73-.16a3.38,3.38,0,0,1-1-.35,1.1,1.1,0,0,1-.5-1,1.49,1.49,0,0,1,.5-1.16,2,2,0,0,1,1.41-.45,2.48,2.48,0,0,1,1.43.4,1.42,1.42,0,0,1,.58,1.27h-.7a1.09,1.09,0,0,0-1.33-1.06,1.27,1.27,0,0,0-.91.27.83.83,0,0,0-.28.61.59.59,0,0,0,.33.56,4.92,4.92,0,0,0,1,.29l.74.17a2.37,2.37,0,0,1,.84.33,1.21,1.21,0,0,1,.5,1.06,1.3,1.3,0,0,1-.64,1.24,3,3,0,0,1-1.51.38,2.3,2.3,0,0,1-1.56-.5,1.68,1.68,0,0,1-.56-1.34Z"></path><path class="cls-1" d="M143.05,74.1h4v.65h-3.26v1.58h3v.61h-3v1.77h3.32v.63h-4Z"></path><path class="cls-1" d="M148.17,74.1h2.5a2.52,2.52,0,0,1,1,.18,1.23,1.23,0,0,1,.76,1.23,1.3,1.3,0,0,1-.21.77,1.36,1.36,0,0,1-.57.48,1.24,1.24,0,0,1,.49.33,1.13,1.13,0,0,1,.18.66l0,.7a1.64,1.64,0,0,0,0,.45.43.43,0,0,0,.24.32v.12h-.92a1.89,1.89,0,0,1-.06-.18c0-.07,0-.21,0-.41l-.05-.87a.7.7,0,0,0-.39-.69,1.49,1.49,0,0,0-.65-.1h-1.64v2.25h-.75Zm2.42,2.4a1.47,1.47,0,0,0,.81-.2.81.81,0,0,0,.29-.72.78.78,0,0,0-.41-.76,1.43,1.43,0,0,0-.6-.11h-1.76V76.5Z"></path><path class="cls-1" d="M153.91,74.1l1.58,4.46,1.56-4.46h.84l-2,5.24h-.79l-2-5.24Z"></path><path class="cls-1" d="M158.76,74.1h.75v5.24h-.75Z"></path><path class="cls-1" d="M164.6,74.49a1.78,1.78,0,0,1,.63,1.18h-.72a1.47,1.47,0,0,0-.49-.8,1.6,1.6,0,0,0-1-.29,1.67,1.67,0,0,0-1.29.54,2.92,2.92,0,0,0-.05,3.16,1.58,1.58,0,0,0,1.32.57,1.41,1.41,0,0,0,1.23-.6,2.19,2.19,0,0,0,.34-.83h.72a2.27,2.27,0,0,1-.63,1.38,2.3,2.3,0,0,1-1.75.67,2.35,2.35,0,0,1-1.59-.55,3.31,3.31,0,0,1-.21-4.15A2.36,2.36,0,0,1,163,74,2.27,2.27,0,0,1,164.6,74.49Z"></path><path class="cls-1" d="M166.32,74.1h4v.65H167v1.58h3v.61h-3v1.77h3.32v.63h-4Z"></path><path class="cls-2" d="M25.28,63.32a2.65,2.65,0,1,1-2.65-2.86A2.76,2.76,0,0,1,25.28,63.32Zm-2.65-5.65a5.65,5.65,0,1,0,5.87,5.65A5.76,5.76,0,0,0,22.63,57.67Z"></path><path class="cls-2" d="M40.76,66.25V61.06c0-2.12-1.5-3.38-3.94-3.38a3.34,3.34,0,0,0-3.19,1.82H33.5V58h0v-.08H29.21v2.58h1.36v5.72H29.28v2.57h5.44V66.18H33.5V62.34A2.58,2.58,0,0,1,36,60.2c1.15,0,1.61.56,1.61,1.72v4.93h0v2h4.14V66.25Z"></path><path class="cls-2" d="M13.43,63.23a4.11,4.11,0,0,1-4.15,3c-3.46,0-6-3.43-6-6.44a5.88,5.88,0,0,1,5.82-6.11c3.7,0,4.56,3.82,4.56,3.82H15.7V51.31H13.62l-.37,1.2a8.11,8.11,0,0,0-4.78-1.67A8.43,8.43,0,0,0,0,59.69a9.23,9.23,0,0,0,9.06,9.65,9.71,9.71,0,0,0,6.84-2.71v-3.4Z"></path><path class="cls-2" d="M44.27,68.78H42.8V64.65h1.87S45.08,67,47,67c.91,0,1.15-.51,1.15-1s-.27-.94-2.57-1.72-2.71-2.2-2.71-3.11.1-3.48,3.78-3.48a5.44,5.44,0,0,1,3,.83v-.62h1.2v3.49h-1.5a2.12,2.12,0,0,0-2.14-1.51c-1.4,0-1.29.59-1.29.73,0,.43.59.94,3,1.71A3.34,3.34,0,0,1,51.4,65.4a3.41,3.41,0,0,1-3.72,3.68c-3,0-3.38-.89-3.38-.89Z"></path><path class="cls-2" d="M58.22,60.49l0-2.58H56.42V54.06l-3.17,1.47v2.38H52v2.58h1.29c0,2.55,0,5.29,0,6,0,1.45,1,2.55,2.95,2.55s2-.51,2-.51V66a1.72,1.72,0,0,1-1,.35c-.54,0-.83-.18-.83-1.15V60.49Z"></path><path class="cls-2" d="M66.74,57.73a3.34,3.34,0,0,0-3.19,1.83h-.12V58h0v-.07H59.14v2.57h1.35v5.72H59.21v2.58h5.43V66.23H63.43V62.39a2.57,2.57,0,0,1,2.45-2.14,1.75,1.75,0,0,1,1.05.27V57.74Z"></path><path class="cls-2" d="M79.09,66.26V58H74.94v2.58h1.21v3.84a2.57,2.57,0,0,1-2.45,2.14c-1.16,0-1.61-.56-1.61-1.72V59.87h0v-2H67.93v2.58h1v5.19c0,2.12,1.5,3.38,3.94,3.38A3.34,3.34,0,0,0,76,67.22h.12v1.54h0v.07h4.28V66.26Z"></path><path class="cls-2" d="M99,60.54,99,58H97.18V54.11L94,55.59V58H92.73v2.58H94c0,2.56,0,5.29,0,6,0,1.45,1,2.55,2.95,2.55s2-.51,2-.51V66a1.71,1.71,0,0,1-1,.35c-.54,0-.83-.19-.83-1.16V60.54Z"></path><path class="cls-2" d="M114.62,63.27A2.65,2.65,0,1,1,112,60.41,2.76,2.76,0,0,1,114.62,63.27ZM112,57.62a5.65,5.65,0,1,0,5.86,5.65A5.76,5.76,0,0,0,112,57.62Z"></path><path class="cls-2" d="M130.16,66.3V61.11c0-2.12-1.5-3.38-3.94-3.38A3.34,3.34,0,0,0,123,59.56h-.13V58h0v-.07h-4.28v2.57H120v5.72h-1.29v2.58h5.44V66.23H122.9V62.39a2.58,2.58,0,0,1,2.46-2.14c1.15,0,1.61.57,1.61,1.72V66.9h0v2h4.14V66.3Z"></path><path class="cls-2" d="M157.24,66.25V61.06c0-2.12-1.5-3.38-3.94-3.38a3.34,3.34,0,0,0-3.19,1.82H150V58h0v-.08h-4.29v2.58h1.36v5.72h-1.28v2.57h5.43V66.18H150V62.34a2.59,2.59,0,0,1,2.46-2.14c1.16,0,1.61.56,1.61,1.72v4.93h0v2h4.15V66.25Z"></path><polygon class="cls-2" points="143.23 66.23 143.23 58.01 143.21 58.01 143.22 57.94 138.94 57.94 138.94 60.51 140.29 60.51 140.29 66.23 139.01 66.23 139.01 68.81 144.44 68.81 144.44 66.23 143.23 66.23"></polygon><circle class="cls-2" cx="141.85" cy="53.31" r="1.93"></circle><polygon class="cls-2" points="136.69 66.23 136.69 51.57 136.67 51.58 136.68 51.5 132.39 51.5 132.39 54.08 133.75 54.08 133.75 66.23 132.47 66.23 132.47 68.81 137.9 68.81 137.9 66.23 136.69 66.23"></polygon><polygon class="cls-2" points="104.4 66.18 104.4 57.96 104.39 57.96 104.39 57.88 100.11 57.88 100.11 60.46 101.47 60.46 101.47 66.18 100.18 66.18 100.18 68.75 105.61 68.75 105.61 66.18 104.4 66.18"></polygon><circle class="cls-2" cx="103.02" cy="53.25" r="1.93"></circle><path class="cls-2" d="M90.53,57.92l-.13.9a6,6,0,0,0-3.31-1,5.65,5.65,0,1,0,0,11.3,5.93,5.93,0,0,0,4.63-2.2h0v-.05l0-.06v-2h0V64.3h-2v.48h0a2.91,2.91,0,0,1-2.66,1.86,3.17,3.17,0,0,1,0-6.32,2.93,2.93,0,0,1,2.7,1.94h2V57.92Z"></path><path class="cls-2" d="M169.82,63.87a4.07,4.07,0,0,0,0-.5c0-3.12-2.08-5.65-5.31-5.65a5.65,5.65,0,1,0,0,11.3,5.11,5.11,0,0,0,5.09-4h-2.79a2.41,2.41,0,0,1-2.3,1.74,2.82,2.82,0,0,1-2.62-2.92ZM164.54,60a2.23,2.23,0,0,1,2.28,2.09H162.1A2.39,2.39,0,0,1,164.54,60Z"></path></g></g></svg>