<svg xmlns="http://www.w3.org/2000/svg" viewBox="0 0 682.82 215.73"><defs><clipPath id="clip-path" transform="translate(-.82)"><path class="cls-1" d="M0 0h683.64v215.73H0z"/></clipPath><clipPath id="clip-path-2" transform="translate(-.82)"><path class="cls-1" d="M240.35 249.82-43.26-33.79h283.61v283.61z"/></clipPath><clipPath id="clip-path-3" transform="translate(-.82)"><path class="cls-1" d="m-43.26-33.79 283.61 283.61H-43.26V-33.79z"/></clipPath><style>.cls-1,.cls-7{fill:none}.cls-3{-webkit-clip-path:url(#clip-path-2);clip-path:url(#clip-path-2)}.cls-4{fill:#bc1e2d}.cls-5{-webkit-clip-path:url(#clip-path-3);clip-path:url(#clip-path-3)}.cls-6{fill:#ea1c24}.cls-7{stroke:#000;stroke-miterlimit:10;stroke-width:5.33px}</style></defs><g id="Layer_2" data-name="Layer 2"><g style="-webkit-clip-path:url(#clip-path);clip-path:url(#clip-path)" id="Home"><g class="cls-3"><path class="cls-4" d="M108.66 214.09C44.78 214.09.82 169.26.82 108.6v-.6C.82 49.71 46.24 1.94 108.36 1.94c36.92 0 59.19 10 80.59 28.13l-28.43 34.29c-15.82-13.19-29.89-20.81-53.62-20.81-32.82 0-58.9 29-58.9 63.88v.57c0 37.5 25.79 65.05 62.12 65.05 16.41 0 31.06-4.1 42.49-12.31v-29.3h-45.42v-39h89.08v89.08c-21.1 17.92-50.11 32.57-87.61 32.57Z" transform="translate(-.82)"/></g><g class="cls-5"><path class="cls-6" d="M108.66 214.09C44.78 214.09.82 169.26.82 108.6v-.6C.82 49.71 46.24 1.94 108.36 1.94c36.92 0 59.19 10 80.59 28.13l-28.43 34.29c-15.82-13.19-29.89-20.81-53.62-20.81-32.82 0-58.9 29-58.9 63.88v.57c0 37.5 25.79 65.05 62.12 65.05 16.41 0 31.06-4.1 42.49-12.31v-29.3h-45.42v-39h89.08v89.08c-21.1 17.92-50.11 32.57-87.61 32.57Z" transform="translate(-.82)"/></g><path class="cls-7" d="M239.53 0v215.73"/><path d="M346.72 166.11h7.6a6 6 0 0 1 4.42 1.5 3.83 3.83 0 0 1 1.14 2.82 3.93 3.93 0 0 1-.73 2.41 3.84 3.84 0 0 1-.77.79 7.58 7.58 0 0 1-.9.58 8.49 8.49 0 0 1 1.36.62 4.38 4.38 0 0 1 1.06.83 3.48 3.48 0 0 1 .69 1.14 4.47 4.47 0 0 1 .24 1.53v.05a4.31 4.31 0 0 1-.45 2 4 4 0 0 1-1.27 1.46 6.16 6.16 0 0 1-2 .88 10.22 10.22 0 0 1-2.56.3h-7.84Zm7 7.15a4.17 4.17 0 0 0 2.32-.57 1.92 1.92 0 0 0 .87-1.73v-.05a1.87 1.87 0 0 0-.76-1.59 3.64 3.64 0 0 0-2.21-.57h-4.28v4.51Zm.88 7.18a4.25 4.25 0 0 0 2.39-.58 2 2 0 0 0 .87-1.75v-.05a1.94 1.94 0 0 0-.86-1.68 4.62 4.62 0 0 0-2.62-.59h-4.72v4.65ZM364.22 166.11h7.57a8.3 8.3 0 0 1 2.84.45 5.66 5.66 0 0 1 2.06 1.25 4.94 4.94 0 0 1 1 1.62 5.61 5.61 0 0 1 .36 2v.05a5.58 5.58 0 0 1-.3 1.88 4.78 4.78 0 0 1-.84 1.48 5.16 5.16 0 0 1-1.27 1.09 6.18 6.18 0 0 1-1.64.69l4.59 6.42h-3.52l-4.18-5.91h-3.75v5.91h-3Zm7.34 8.41a3.93 3.93 0 0 0 2.55-.76 2.52 2.52 0 0 0 .95-2.08v-.05a2.52 2.52 0 0 0-.92-2.11 4.18 4.18 0 0 0-2.61-.72h-4.35v5.72ZM381.92 166.11h3v17h-3ZM397.35 183.38a8.67 8.67 0 0 1-3.45-.68 8.53 8.53 0 0 1-2.73-1.86 8.38 8.38 0 0 1-1.82-2.78 8.82 8.82 0 0 1-.66-3.41v-.05a8.81 8.81 0 0 1 .65-3.41 8.42 8.42 0 0 1 1.82-2.79 8.52 8.52 0 0 1 2.77-1.89 8.8 8.8 0 0 1 3.54-.69 10.71 10.71 0 0 1 2.12.19 8.43 8.43 0 0 1 1.76.55 8 8 0 0 1 1.48.84 10.75 10.75 0 0 1 1.28 1.06l-1.91 2.21a9.69 9.69 0 0 0-2.16-1.53 5.62 5.62 0 0 0-2.6-.58 5.38 5.38 0 0 0-2.24.47 5.62 5.62 0 0 0-1.78 1.29 5.84 5.84 0 0 0-1.17 1.9 6.64 6.64 0 0 0-.41 2.33 6.78 6.78 0 0 0 .41 2.34 6.08 6.08 0 0 0 1.17 1.93 5.32 5.32 0 0 0 1.78 1.29 5.24 5.24 0 0 0 2.24.48 5.54 5.54 0 0 0 2.67-.6 10.4 10.4 0 0 0 2.21-1.61l1.91 1.94a10.68 10.68 0 0 1-1.37 1.25 8.56 8.56 0 0 1-1.54.94 7.78 7.78 0 0 1-1.8.61 10.44 10.44 0 0 1-2.17.26ZM407.34 166.11h3v8.54l8.08-8.54H422l-7.06 7.3 7.38 9.67h-3.62l-5.79-7.63-2.65 2.71v4.92h-3ZM423.61 166.11h3.22l4.05 12.59 4.17-12.64h2.52l4.17 12.64 4.05-12.59h3.13l-5.92 17.1h-2.57L436.26 171l-4.17 12.2h-2.57ZM460.08 183.38a8.91 8.91 0 0 1-3.59-.7 8.5 8.5 0 0 1-2.79-1.87 8.74 8.74 0 0 1-2.47-6.16v-.05a8.64 8.64 0 0 1 2.49-6.17 8.83 8.83 0 0 1 6.41-2.61 9.07 9.07 0 0 1 3.58.69 8.42 8.42 0 0 1 2.79 1.88 8.59 8.59 0 0 1 1.82 2.78 8.7 8.7 0 0 1 .66 3.38 8.74 8.74 0 0 1-.66 3.38 8.63 8.63 0 0 1-1.84 2.79 8.89 8.89 0 0 1-6.4 2.61Zm.05-2.74a5.48 5.48 0 0 0 2.3-.48 5.42 5.42 0 0 0 1.8-1.28 5.88 5.88 0 0 0 1.17-1.88 6.37 6.37 0 0 0 .42-2.32v-.05a6.48 6.48 0 0 0-.42-2.34 5.85 5.85 0 0 0-1.18-1.92 6 6 0 0 0-1.82-1.3 5.61 5.61 0 0 0-6.43 1.28 5.84 5.84 0 0 0-1.17 1.9 6.42 6.42 0 0 0-.42 2.33 6.56 6.56 0 0 0 .42 2.34 5.91 5.91 0 0 0 1.18 1.91 5.68 5.68 0 0 0 4.15 1.79ZM472.59 166.11h7.56a8.26 8.26 0 0 1 2.84.45 5.58 5.58 0 0 1 2.06 1.25 5 5 0 0 1 1.05 1.62 5.61 5.61 0 0 1 .36 2v.05a5.58 5.58 0 0 1-.3 1.88 5.23 5.23 0 0 1-.84 1.48 5.35 5.35 0 0 1-1.27 1.09 6.32 6.32 0 0 1-1.64.69l4.58 6.42h-3.51l-4.19-5.91h-3.74v5.91h-3Zm7.34 8.41a3.93 3.93 0 0 0 2.55-.76 2.55 2.55 0 0 0 .95-2.08v-.05a2.5 2.5 0 0 0-.93-2.11 4.13 4.13 0 0 0-2.6-.72h-4.35v5.72ZM490.12 166.11h3v8.54l8.07-8.54h3.67l-7.06 7.3 7.37 9.67h-3.61l-5.8-7.63-2.64 2.71v4.92h-3ZM515 166.11h2.95v14.28h8.93v2.69H515ZM530.15 166.11h3v17h-3ZM537.67 166.11h3.18l5.16 8 5.17-8h3.17v17h-3v-12.2l-5.36 8h-.1l-5.26-7.91v12.12h-3ZM558.89 166.11h3v17h-3ZM570.58 168.88h-5.39v-2.77H579v2.77h-5.39v14.2h-3ZM582.12 166.11h12.56v2.69h-9.6v4.37h8.51v2.69h-8.51v4.53h9.72v2.69h-12.68ZM598.37 166.11h6.32a10 10 0 0 1 3.65.64 8.77 8.77 0 0 1 2.87 1.79 8 8 0 0 1 1.85 2.67 8.4 8.4 0 0 1 .65 3.34 8.43 8.43 0 0 1-.65 3.34 7.93 7.93 0 0 1-1.85 2.7 8.94 8.94 0 0 1-2.87 1.79 9.76 9.76 0 0 1-3.65.65h-6.32Zm6.3 14.28a6.74 6.74 0 0 0 2.43-.42 5.3 5.3 0 0 0 3-3 6.23 6.23 0 0 0 .42-2.3v-.05a6.33 6.33 0 0 0-.42-2.32 5.33 5.33 0 0 0-3-3 6.53 6.53 0 0 0-2.43-.44h-3.35v11.59ZM454.59 125.17h-35.07V68.9h-15.47v61.85L377.52 68.4h-14.27l-23.76 55.83V98.74h-30.55v13.37h15.58v10a24.73 24.73 0 0 1-14.52 4.27c-12.46 0-21.31-9.45-21.31-22.31v-.2c0-12 8.95-21.91 20.2-21.91 8.14 0 13 2.62 18.39 7.14L337 77.34c-7.34-6.23-15-9.65-27.64-9.65-21.3 0-36.88 16.38-36.88 36.38v.2c0 20.8 15.08 36.18 37 36.18a45.27 45.27 0 0 0 26.83-8.65l-3.17 7.44h15.78l6.43-15.78h21.48l-5.22-13.66h-10.77l5.55-13.56 3.79-9.24 21.51 52.25h62.9Z" transform="translate(-.82)"/><path d="M627.15 68.9h-15.27v43.31L578.92 68.9h-14.27v59.42l-25.5-59.92h-14.27l-24.16 56.77H474.7V68.9h-15.47v70.34h51.28l6.43-15.78h21.74l-5.22-13.66h-10.99l9.34-22.81.13.31.13-.31 21.51 52.25H579.92V94.52l34.07 44.72h13.16V83.17h18.79v56.07h15.48V83.17h21.4V68.9h-55.67z"/><g class="cls-3"><path class="cls-4" d="M108.66 214.09C44.78 214.09.82 169.26.82 108.6v-.6C.82 49.71 46.24 1.94 108.36 1.94c36.92 0 59.19 10 80.59 28.13l-28.43 34.29c-15.82-13.19-29.89-20.81-53.62-20.81-32.82 0-58.9 29-58.9 63.88v.57c0 37.5 25.79 65.05 62.12 65.05 16.41 0 31.06-4.1 42.49-12.31v-29.3h-45.42v-39h89.08v89.08c-21.1 17.92-50.11 32.57-87.61 32.57Z" transform="translate(-.82)"/></g><g class="cls-5"><path class="cls-6" d="M108.66 214.09C44.78 214.09.82 169.26.82 108.6v-.6C.82 49.71 46.24 1.94 108.36 1.94c36.92 0 59.19 10 80.59 28.13l-28.43 34.29c-15.82-13.19-29.89-20.81-53.62-20.81-32.82 0-58.9 29-58.9 63.88v.57c0 37.5 25.79 65.05 62.12 65.05 16.41 0 31.06-4.1 42.49-12.31v-29.3h-45.42v-39h89.08v89.08c-21.1 17.92-50.11 32.57-87.61 32.57Z" transform="translate(-.82)"/></g><path class="cls-7" d="M239.53 0v215.73"/></g></g></svg>